<svg xmlns="http://www.w3.org/2000/svg" width="512" height="512" viewBox="0 0 135.467 135.467"><path style="fill:#00c4a7;fill-opacity:1;stroke:#fff;stroke-width:3.99999;stroke-opacity:0" d="M256 0a256 256 0 0 0-42.604 3.57V16.23c-6.967.248-15.678 1.368-26.13 3.359-10.452 1.99-18.166 3.858-23.143 5.6-8.461 2.986-14.186 7.963-17.172 14.931-2.986 6.968-4.478 14.56-4.478 22.772v182.908h7.464a1623.172 1623.172 0 0 0 66.07-58.979c21.651-20.655 41.313-41.185 58.981-61.591 19.66-22.646 33.97-40.69 42.928-54.127 9.208-13.688 13.81-25.757 13.81-36.21 0-3.732-2.363-6.717-7.091-8.956-4.48-2.489-9.705-4.48-15.678-5.973-6.968-1.493-13.19-2.365-18.664-2.613-5.475-.498-9.956-.873-13.44-1.121V.852A256 256 0 0 0 256 0zm138.857 40.932c-2.442 1.963-4.707 4.05-6.765 6.279a13818.255 13818.255 0 0 1-80.256 90.336c-27.872 31.107-55.495 59.475-82.87 85.107 37.827 42.803 69.06 79.634 93.696 110.492 24.886 30.859 51.265 63.832 79.137 98.92 6.713 8.431 13.425 15.832 20.139 22.205A256 256 0 0 0 512 256 256 256 0 0 0 394.857 40.932zM62.963 87.855A256 256 0 0 0 0 256a256 256 0 0 0 62.963 168.143V87.855zm79.51 172.502V444.76c0 8.212 1.492 15.553 4.478 22.023 3.235 6.47 8.96 11.696 17.172 15.678 3.982 1.742 11.323 3.857 22.023 6.346 10.95 2.488 20.034 3.856 27.25 4.105v15.518A256 256 0 0 0 256 512a256 256 0 0 0 86.627-15.102c-24.674-36.674-51.57-73.092-80.705-109.252a2128.054 2128.054 0 0 0-109.744-127.289h-9.705z" transform="scale(.26458)"/></svg>